<svg width="70" height="68" viewBox="0 0 70 68" fill="none" xmlns="http://www.w3.org/2000/svg">
<path d="M33.5417 5.66669C19.8625 5.66669 8.75 16.4617 8.75 29.75C8.75 43.0384 19.8625 53.8334 33.5417 53.8334H35V62.3334C49.175 55.7034 58.3333 42.5 58.3333 29.75C58.3333 16.4617 47.2208 5.66669 33.5417 5.66669ZM36.4583 46.75H30.625V41.0834H36.4583V46.75ZM36.4583 36.8334H30.625C30.625 27.625 39.375 28.3334 39.375 22.6667C39.375 19.55 36.75 17 33.5417 17C30.3333 17 27.7083 19.55 27.7083 22.6667H21.875C21.875 16.405 27.0958 11.3334 33.5417 11.3334C39.9875 11.3334 45.2083 16.405 45.2083 22.6667C45.2083 29.75 36.4583 30.4584 36.4583 36.8334Z" fill="#2F3255"/>
</svg>
