<svg width="70" height="62" viewBox="0 0 70 62" fill="none" xmlns="http://www.w3.org/2000/svg">
<path d="M22.7501 42.1094C22.4887 42.1094 22.2273 42.1512 21.9779 42.2398C20.5604 42.7434 19.0697 43.0664 17.5001 43.0664C15.9306 43.0664 14.4398 42.7434 13.0212 42.2398C12.7719 42.1512 12.5116 42.1094 12.2501 42.1094C5.46235 42.1094 -0.035917 48.1482 0.000176693 55.582C0.0154892 58.7234 2.37689 61.25 5.25016 61.25H29.7501C32.6234 61.25 34.9848 58.7234 35.0001 55.582C35.0362 48.1482 29.5379 42.1094 22.7501 42.1094ZM17.5001 38.2812C23.2992 38.2812 28.0001 33.1396 28.0001 26.7969C28.0001 20.4542 23.2992 15.3125 17.5001 15.3125C11.7011 15.3125 7.00016 20.4542 7.00016 26.7969C7.00016 33.1396 11.7011 38.2812 17.5001 38.2812ZM64.75 0H22.7501C19.855 0 17.5001 2.66174 17.5001 5.9324V11.4844C20.0617 11.4844 22.4329 12.2955 24.5001 13.6138V7.65625H63V42.1094H56V34.4531H42.0001V42.1094H33.6613C35.7504 44.106 37.2838 46.7426 38.0024 49.7656H64.75C67.6452 49.7656 70 47.1039 70 43.8332V5.9324C70 2.66174 67.6452 0 64.75 0Z" fill="#2F3255"/>
</svg>
